<svg width="15" height="15" viewBox="0 0 15 15" fill="none" xmlns="http://www.w3.org/2000/svg">
<path d="M7.5 4.375C7.5 3.71196 7.23661 3.07607 6.76777 2.60723C6.29893 2.13839 5.66304 1.875 5 1.875H1.25V11.25H5.625C6.12228 11.25 6.59919 11.4475 6.95083 11.7992C7.30246 12.1508 7.5 12.6277 7.5 13.125M7.5 4.375V13.125M7.5 4.375C7.5 3.71196 7.76339 3.07607 8.23223 2.60723C8.70107 2.13839 9.33696 1.875 10 1.875H13.75V11.25H9.375C8.87772 11.25 8.40081 11.4475 8.04917 11.7992C7.69754 12.1508 7.5 12.6277 7.5 13.125" stroke="#062659" stroke-width="1.25" stroke-linecap="round" stroke-linejoin="round"/>
</svg>
