<svg width="15" height="15" viewBox="0 0 15 15" fill="none" xmlns="http://www.w3.org/2000/svg">
<path d="M8.75 1.41846V4.00004C8.75 4.35008 8.75 4.52509 8.81813 4.65879C8.87806 4.77639 8.97362 4.872 9.09125 4.93192C9.22494 5.00004 9.39994 5.00004 9.75 5.00004H12.3316M10 8.125H5M10 10.625H5M6.25 5.625H5M8.75 1.25H5.5C4.4499 1.25 3.92485 1.25 3.52377 1.45436C3.17096 1.63413 2.88413 1.92096 2.70436 2.27377C2.5 2.67485 2.5 3.1999 2.5 4.25V10.75C2.5 11.8001 2.5 12.3251 2.70436 12.7262C2.88413 13.0791 3.17096 13.3659 3.52377 13.5456C3.92485 13.75 4.4499 13.75 5.5 13.75H9.5C10.5501 13.75 11.0751 13.75 11.4762 13.5456C11.8291 13.3659 12.1159 13.0791 12.2956 12.7262C12.5 12.3251 12.5 11.8001 12.5 10.75V5L8.75 1.25Z" stroke="#062659" stroke-linecap="round" stroke-linejoin="round"/>
</svg>
